# xmcd CD database file
#
# Track frame offsets:
#	150
#	28547
#	56580
#	81677
#	96380
#	112852
#	137537
#	165800
#	185255
#	209112
#	224912
#	239192
#	257047
#
# Disc length: 3759 seconds
#
# Revision: 0
# Processed by: cddbd v1.5.1PL2 Copyright (c) Steve Scherf et al.
# Submitted via: CDex 1.51
#
DISCID=c40ead0d
DTITLE=Mel Torme and George Shearing - Mel and George "Do" World War II
DYEAR=1990
DGENRE=Jazz
TTITLE0=LILI MARLENE
TTITLE1=(IT SEEMS TO ME) I'VE HEARD THAT SONG BEFORE
TTITLE2=I KNOW WHY AND SO DO YOU
TTITLE3=LOVE
TTITLE4=AREN'T YOU GLAD YOU'RE YOU
TTITLE5=ELLINGTON MEDREY
TTITLE6=WALK MEDLEY
TTITLE7=I COULD WRITE A BOOK
TTITLE8=(THIS IS) A LOVELY WAY TO SPEND AN EVENING
TTITLE9=ON THE SWING SHIFT/THE FIVE O'CLOCK WHISTLE
TTITLE10=AC-CENT-TCHU-ATE THE POSITIVE
TTITLE11=THIS IS THE ARMY MISTER JONES
TTITLE12=WE MUSN'T SAY GOODBYE
EXTD=YEAR: 1990
EXTT0=
EXTT1=
EXTT2=
EXTT3=
EXTT4=
EXTT5=
EXTT6=
EXTT7=
EXTT8=
EXTT9=
EXTT10=
EXTT11=
EXTT12=
PLAYORDER=
